<svg width="95" height="95" viewBox="0 0 95 95" fill="none" xmlns="http://www.w3.org/2000/svg">
<path d="M47.5 0C21.309 0 0 21.309 0 47.5C0 73.691 21.309 95 47.5 95C73.691 95 95 73.691 95 47.5C95 21.309 73.691 0 47.5 0ZM69.859 63.141C71.7145 64.9965 71.7145 68.0004 69.859 69.8598C68.9293 70.7895 67.7145 71.2504 66.4996 71.2504C65.2847 71.2504 64.0699 70.7856 63.1402 69.8598L47.4992 54.2188L31.8582 69.8598C30.9285 70.7895 29.7137 71.2504 28.4988 71.2504C27.2839 71.2504 26.0691 70.7856 25.1394 69.8598C23.2839 68.0043 23.2839 65.0004 25.1394 63.141L40.7804 47.5L25.1394 31.859C23.2839 30.0035 23.2839 26.9996 25.1394 25.1402C26.9949 23.2847 29.9988 23.2847 31.8582 25.1402L47.4992 40.7812L63.1402 25.1402C64.9957 23.2847 67.9996 23.2847 69.859 25.1402C71.7145 26.9957 71.7145 29.9996 69.859 31.859L54.218 47.5L69.859 63.141Z" fill="black"/>
</svg>
