<svg width="93" height="93" viewBox="0 0 93 93" fill="none" xmlns="http://www.w3.org/2000/svg">
<path d="M3.31593 0C1.48505 0.00290707 0 1.48842 0 3.31987C0 3.48267 0.0116246 3.64256 0.0348739 3.80244L0.0319678 3.785V29.9166C0.0319678 29.9312 0.0319678 29.9457 0.0319678 29.9631C0.0319678 31.7975 1.51992 33.283 3.3508 33.283C5.18168 33.283 6.66963 31.7975 6.66963 29.9631C6.66963 29.9457 6.66963 29.9312 6.66963 29.9137V29.9166V11.3724L27.5591 32.2685C28.1607 32.8702 28.9889 33.2394 29.9044 33.2394C31.7382 33.2394 33.2232 31.751 33.2232 29.9195C33.2232 29.0009 32.8512 28.1724 32.2496 27.5706L11.3602 6.67463H29.9015C29.916 6.67463 29.9305 6.67463 29.948 6.67463C31.7818 6.67463 33.2668 5.18621 33.2668 3.35476C33.2668 1.5233 31.7818 0.0348848 29.948 0.0348848C29.9305 0.0348848 29.916 0.0348848 29.8986 0.0348848H3.75185C3.62107 0.0145353 3.46705 0.00290707 3.31302 0.00290707L3.31593 0ZM89.5882 0.00290707C89.4603 0.00581414 89.3382 0.0174424 89.2191 0.0348848L89.2365 0.0319777H63.0956C63.0811 0.0319777 63.0666 0.0319777 63.0491 0.0319777C61.2153 0.0319777 59.7303 1.51749 59.7303 3.35185C59.7303 5.18621 61.2153 6.67172 63.0491 6.67172C63.0666 6.67172 63.0811 6.67172 63.0985 6.67172H81.6369L60.7474 27.5677C60.1459 28.1695 59.7739 28.998 59.7739 29.9166C59.7739 31.751 61.2618 33.2365 63.0956 33.2365C64.0111 33.2365 64.8422 32.8644 65.4438 32.2655L86.3333 11.3695V29.9137C86.3333 29.9283 86.3333 29.9428 86.3333 29.9602C86.3333 31.7946 87.8183 33.2801 89.6521 33.2801C91.4859 33.2801 92.9709 31.7946 92.9709 29.9602C92.9709 29.9428 92.9709 29.9283 92.9709 29.9108V3.75884C92.9884 3.62802 93 3.47395 93 3.31987C93 1.48551 91.5149 0 89.6812 0C89.6492 0 89.6143 0 89.5824 0.00290707H89.5882ZM3.3014 59.7548C1.48795 59.7838 0.0290616 61.2577 0.0290616 63.0746C0.0290616 63.0921 0.0290616 63.1066 0.0290616 63.1241V89.683C0.0290616 89.6859 0.0290616 89.6889 0.0290616 89.6918C0.0290616 89.6947 0.0290616 89.6976 0.0290616 89.7005C0.0290616 89.7964 0.0348739 89.8923 0.0435924 89.9854L0.0406862 89.9708C0.0435924 89.997 0.0435924 90.0115 0.0435924 90.0261V90.0144C0.0523109 90.1133 0.0668417 90.1976 0.0813725 90.2819L0.0784663 90.2615C0.0871848 90.3139 0.0929971 90.3459 0.0988094 90.3749L0.0959033 90.3546C0.165651 90.6773 0.273179 90.9651 0.412675 91.2267L0.403956 91.2093C0.424299 91.2529 0.43883 91.2761 0.453361 91.2994L0.444642 91.2819C0.494047 91.3691 0.534733 91.4389 0.581232 91.5087L0.572513 91.497C0.592856 91.5319 0.607387 91.5523 0.621918 91.5726L0.6132 91.561C0.799194 91.8256 1.01134 92.0552 1.25255 92.25L1.25837 92.2558C1.26709 92.2616 1.2758 92.2732 1.28743 92.282L1.29033 92.2849C1.83088 92.7122 2.51673 92.9767 3.26362 92.9942H3.26652C3.28396 92.9971 3.31012 92.9971 3.33918 92.9971H29.8986C29.9131 92.9971 29.9276 92.9971 29.9451 92.9971C31.7789 92.9971 33.2639 91.5116 33.2639 89.6772C33.2639 87.8429 31.7789 86.3574 29.9451 86.3574C29.9276 86.3574 29.9131 86.3574 29.8957 86.3574H11.3602L32.2467 65.4614C32.8658 64.8567 33.2494 64.0165 33.2494 63.0834C33.2494 61.249 31.7643 59.7635 29.9305 59.7635C29.8986 59.7635 29.8637 59.7635 29.8317 59.7664H29.8375C28.9424 59.7926 28.1374 60.1705 27.5562 60.7664L6.66673 81.6624V63.1153C6.66673 63.1008 6.66673 63.0863 6.66673 63.0717C6.66673 61.2374 5.17878 59.7519 3.3479 59.7519C3.33046 59.7519 3.31302 59.7519 3.29558 59.7519L3.3014 59.7548ZM89.6056 59.7548C87.7922 59.7838 86.3333 61.2577 86.3333 63.0746C86.3333 63.0921 86.3333 63.1066 86.3333 63.1241V81.6683L65.4438 60.7722C64.8393 60.1501 63.9965 59.7664 63.0637 59.7664C61.2328 59.7693 59.7448 61.2548 59.7448 63.0863C59.7448 64.0194 60.1313 64.8625 60.7503 65.4643L81.6369 86.3603H63.0985C63.084 86.3603 63.0695 86.3603 63.052 86.3603C61.2182 86.3603 59.7332 87.8458 59.7332 89.6801C59.7332 91.5145 61.2182 93 63.052 93C63.0695 93 63.084 93 63.1014 93H89.6521C90.0008 93 90.3409 92.9448 90.6576 92.843L90.6344 92.8488C90.6547 92.8401 90.6576 92.8372 90.6605 92.8372L90.6431 92.8459C90.7681 92.8081 90.8698 92.7703 90.9715 92.7267L90.9512 92.7355C90.9773 92.7238 90.9831 92.7209 90.9889 92.718L90.9715 92.7267C91.0848 92.6773 91.1778 92.6308 91.2679 92.5814L91.2505 92.5901C91.265 92.5814 91.2679 92.5756 91.2708 92.5756L91.2621 92.5814C91.4336 92.4855 91.5789 92.3895 91.7155 92.282L91.7097 92.2878C91.7591 92.25 91.7968 92.218 91.8375 92.1831L91.8317 92.186C91.9073 92.1221 91.9741 92.0581 92.0381 91.9913C92.041 91.9883 92.0439 91.9854 92.0468 91.9825C92.1921 91.8314 92.3258 91.6657 92.4391 91.4854L92.4478 91.4709C92.4391 91.4883 92.442 91.4854 92.442 91.4854L92.4507 91.468C92.5001 91.3924 92.5554 91.2994 92.6048 91.2034L92.6135 91.186C92.6048 91.2034 92.6077 91.2005 92.6077 91.2005L92.6164 91.1831C92.7065 91.0087 92.7878 90.8052 92.846 90.593L92.8518 90.5697C92.8489 90.5871 92.8489 90.5842 92.8489 90.5784L92.8547 90.5552C92.9215 90.3168 92.9622 90.0464 92.968 89.7644V89.7615C92.9709 89.7441 92.9709 89.7179 92.9709 89.6889V63.1212C92.9709 63.1066 92.9709 63.0921 92.9709 63.0776C92.9709 61.2432 91.4859 59.7577 89.6521 59.7577C89.6347 59.7577 89.6172 59.7577 89.5998 59.7577L89.6056 59.7548Z" fill="white"/>
</svg>
