<svg width="91" height="100" viewBox="0 0 91 100" fill="none" xmlns="http://www.w3.org/2000/svg">
<path fill-rule="evenodd" clip-rule="evenodd" d="M45.3228 1.77587e-09C41.8627 -4.50982e-05 39.1895 0.85893 37.3072 2.44922C35.4248 4.03951 34.4862 6.08364 33.7154 7.97852C32.1737 11.7683 31.3185 15.155 26.729 17.8047C22.1395 20.4544 18.7858 19.4973 14.7329 18.9375C12.7065 18.6576 10.4732 18.4443 8.15481 19.2793C5.83638 20.1143 3.7423 21.9996 2.01223 24.9961C0.282164 27.9926 -0.296867 30.7446 0.139185 33.1699C0.575237 35.5952 1.87969 37.428 3.13528 39.043C5.64646 42.273 8.14511 44.7005 8.14504 50C8.14498 55.2995 5.64655 57.7271 3.13528 60.957C1.87965 62.572 0.575301 64.4048 0.139185 66.8301C-0.296931 69.2554 0.282243 72.0074 2.01223 75.0039C3.74222 78.0004 5.8364 79.8759 8.15481 80.7109C10.4732 81.546 12.7065 81.3345 14.7329 81.0547C18.7858 80.495 22.1396 79.5455 26.729 82.1953C31.3185 84.8451 32.1738 88.2219 33.7154 92.0117C34.4862 93.9066 35.4248 95.9604 37.3072 97.5508C39.1895 99.1411 41.8627 100 45.3228 100C48.7828 100 51.458 99.1411 53.3404 97.5508C55.2227 95.9605 56.1496 93.9164 56.9204 92.0215C58.4621 88.2317 59.3172 84.845 63.9068 82.1953C68.4963 79.5456 71.8519 80.4948 75.9048 81.0547C77.9312 81.3346 80.1723 81.5557 82.4907 80.7207C84.8092 79.8857 86.8935 78.0004 88.6236 75.0039C90.3536 72.0074 90.9444 69.2554 90.5083 66.8301C90.0723 64.4048 88.7659 62.572 87.5103 60.957C84.9991 57.727 82.5004 55.2995 82.5005 50C82.5006 44.7005 84.999 42.2729 87.5103 39.043C88.7659 37.428 90.0722 35.5952 90.5083 33.1699C90.9444 30.7446 90.3536 27.9926 88.6236 24.9961C86.8936 21.9996 84.8092 20.1143 82.4907 19.2793C80.1723 18.4443 77.9312 18.6654 75.9048 18.9453C71.8519 19.505 68.4962 20.4545 63.9068 17.8047C59.3173 15.1549 58.462 11.7683 56.9204 7.97852C56.1496 6.08362 55.2227 4.03956 53.3404 2.44922C51.458 0.85888 48.7828 4.52018e-05 45.3228 1.77587e-09ZM45.3228 28.498C57.1683 28.498 66.8228 38.1546 66.8228 50C66.8228 61.8454 57.1683 71.502 45.3228 71.502C33.4773 71.502 23.8208 61.8454 23.8208 50C23.8208 38.1546 33.4773 28.498 45.3228 28.498Z" fill="black"/>
</svg>
