<svg width="80" height="80" viewBox="0 0 80 80" fill="none" xmlns="http://www.w3.org/2000/svg">
<path d="M40 0C17.941 0 0 17.941 0 40C0 62.059 17.941 80 40 80C62.059 80 80 62.059 80 40C80 17.941 62.059 0 40 0ZM40 72C22.359 72 8 57.641 8 40C8 22.359 22.359 8 40 8C57.641 8 72 22.352 72 40C72 57.648 57.641 72 40 72Z" fill="black"/>
<path d="M44.641 29.641C44.641 35.8285 35.3598 35.8285 35.3598 29.641C35.3598 23.4535 44.641 23.4535 44.641 29.641Z" fill="black"/>
<path d="M40 38.141C37.7891 38.141 36 39.9301 36 42.141V58.86C36 61.0709 37.7891 62.86 40 62.86C42.2109 62.86 44 61.0709 44 58.86V42.141C44 39.9301 42.2109 38.141 40 38.141Z" fill="black"/>
</svg>
