<?xml version="1.0" encoding="UTF-8"?>
<svg id="Layer_2" data-name="Layer 2" xmlns="http://www.w3.org/2000/svg" viewBox="0 0 80.15 64.67">
  <defs>
    <style>
      .cls-1 {
        fill: #fff;
      }
    </style>
  </defs>
  <g id="Notes">
    <g>
      <path class="cls-1" d="M6.68,13.37c3.69,0,6.68-2.99,6.68-6.68S10.37,0,6.68,0,0,2.99,0,6.68s2.99,6.68,6.68,6.68"/>
      <path class="cls-1" d="M6.68,38.88c3.69,0,6.68-2.99,6.68-6.68s-2.99-6.68-6.68-6.68-6.68,2.99-6.68,6.68,2.99,6.68,6.68,6.68"/>
      <path class="cls-1" d="M6.68,64.67c3.69,0,6.68-2.99,6.68-6.68s-2.99-6.68-6.68-6.68-6.68,2.99-6.68,6.68,2.99,6.68,6.68,6.68"/>
      <rect class="cls-1" x="19.28" y="1.68" width="60.87" height="10" rx="3.5" ry="3.5"/>
      <rect class="cls-1" x="19.28" y="27.19" width="60.87" height="10" rx="3.5" ry="3.5"/>
      <rect class="cls-1" x="19.28" y="52.98" width="60.87" height="10" rx="3.5" ry="3.5"/>
    </g>
  </g>
</svg>