<svg width="99" height="99" viewBox="0 0 99 99" fill="none" xmlns="http://www.w3.org/2000/svg">
<path d="M96.404 84.1L79.822 67.518C77.807 65.504 75.055 64.693 72.437 65.062L60.637 53.262C70.184 40.154 69.051 21.639 57.233 9.822C50.9 3.488 42.479 0 33.52 0C24.563 0 16.141 3.488 9.807 9.822C-3.269 22.898 -3.269 44.173 9.807 57.249C16.139 63.583 24.561 67.072 33.517 67.072C40.707 67.072 47.551 64.818 53.247 60.653L65.047 72.454C64.677 75.071 65.488 77.824 67.501 79.836L84.083 96.42C85.784 98.12 88.015 98.971 90.243 98.971C92.472 98.971 94.701 98.12 96.403 96.42C99.805 93.017 99.805 87.502 96.404 84.1ZM33.518 54.876C27.818 54.876 22.46 52.655 18.43 48.626C10.109 40.305 10.109 26.767 18.43 18.446C22.46 14.415 27.819 12.196 33.52 12.196C39.221 12.196 44.58 14.415 48.61 18.446C56.93 26.766 56.93 40.303 48.609 48.623C44.578 52.655 39.219 54.876 33.518 54.876Z" fill="black"/>
</svg>
